<svg width="30" height="44" viewBox="0 0 30 44" fill="none" xmlns="http://www.w3.org/2000/svg">
<g id="cashapp / logo">
<path id="Vector" d="M25.3509 13.79C25.4682 13.9085 25.6076 14.0026 25.7611 14.0667C25.9146 14.1309 26.0792 14.164 26.2454 14.164C26.4116 14.164 26.5762 14.1309 26.7297 14.0667C26.8832 14.0026 27.0226 13.9085 27.1399 13.79L29.6246 11.19C29.7488 11.0595 29.846 10.9054 29.9103 10.7367C29.9746 10.5679 30.0049 10.388 29.9994 10.2074C29.9938 10.0268 29.9525 9.8491 29.878 9.68472C29.8034 9.52033 29.697 9.37255 29.565 9.25C27.6034 7.5359 25.323 6.23067 22.8562 5.41L23.6414 1.61C23.6822 1.42009 23.6811 1.2235 23.6383 1.03405C23.5955 0.844598 23.5119 0.66689 23.3935 0.513423C23.2751 0.359956 23.1246 0.234459 22.9528 0.145757C22.781 0.0570546 22.592 0.00730265 22.399 0L17.5886 0C17.2879 0.00324447 16.9975 0.11031 16.7659 0.303273C16.5343 0.496236 16.3756 0.763385 16.3164 1.06L15.6207 4.44C9.22002 4.77 3.79336 8 3.79336 14.74C3.79336 20.54 8.27582 23.03 13.0167 24.74C17.4991 26.46 19.8745 27.1 19.8745 29.52C19.8745 31.94 17.5091 33.47 14.0106 33.47C12.3262 33.4957 10.6537 33.1835 9.09053 32.5517C7.52741 31.9198 6.10505 30.981 4.90652 29.79C4.78652 29.6691 4.64399 29.5731 4.48709 29.5076C4.33019 29.4422 4.162 29.4085 3.99214 29.4085C3.82229 29.4085 3.6541 29.4422 3.4972 29.5076C3.3403 29.5731 3.19777 29.6691 3.07776 29.79L0.39425 32.49C0.141769 32.7449 0 33.0901 0 33.45C0 33.8099 0.141769 34.1551 0.39425 34.41C2.55637 36.5217 5.22294 38.0371 8.13667 38.81L7.40119 42.38C7.35847 42.5722 7.3587 42.7716 7.40189 42.9637C7.44507 43.1558 7.53012 43.3358 7.65089 43.4909C7.77167 43.6459 7.92515 43.7719 8.10026 43.86C8.27537 43.948 8.46772 43.9959 8.66344 44H13.4838C13.7793 44.0026 14.0671 43.9055 14.3013 43.7242C14.5355 43.543 14.7026 43.288 14.7759 43L15.4716 39.61C23.1743 39.09 27.8654 34.82 27.8654 28.61C27.8654 22.87 23.1941 20.45 17.529 18.48C14.2889 17.27 11.4861 16.48 11.4861 13.95C11.4861 11.42 14.1 10.57 16.7239 10.57C19.9043 10.5918 22.9718 11.759 25.3708 13.86L25.3509 13.79Z" fill="#00D54B"/>
</g>
</svg>
